<svg  viewBox="0 0 24 24" fill="none" xmlns="http://www.w3.org/2000/svg">
<circle cx="12" cy="12" r="12" fill="currentColor"/>
<g clip-path="url(#clip0_843_29160)">
<path d="M12.3349 11.2865C13.2801 11.2865 14.0449 12.0513 14.0449 12.9965C14.0449 13.9418 13.2801 14.7065 12.3349 14.7065C11.3896 14.7065 10.6249 13.9418 10.6249 12.9965C10.6249 12.0513 11.3896 11.2865 12.3349 11.2865ZM12.3349 10.1465C10.7626 10.1465 9.48486 11.4243 9.48486 12.9965C9.48486 14.5688 10.7626 15.8465 12.3349 15.8465C13.9071 15.8465 15.1849 14.5688 15.1849 12.9965C15.1849 11.4243 13.9071 10.1465 12.3349 10.1465Z" fill="#939393"/>
<path d="M16.7617 9.68579C16.7617 9.68579 16.7617 9.68579 16.757 9.68579C16.3722 9.68579 16.0635 10.004 16.0635 10.3888C16.0635 10.7735 16.377 11.0823 16.7617 11.0823C16.7617 11.0823 16.7617 11.0823 16.7665 11.0823C17.1512 11.0823 17.46 10.764 17.46 10.3793C17.46 9.99454 17.1465 9.68579 16.7617 9.68579Z" fill="#939393"/>
<path d="M9.52729 8.99227L8.42529 8.71677L9.27079 5.33002H15.1988L16.0348 8.69777L14.928 8.97327L14.3058 6.47002H10.159L9.52729 8.99227Z" fill="#939393"/>
<path d="M14.7194 8.11829L15.0044 9.25829H18.1585V16.73H6.5067V9.25829H13.5367L13.2517 8.11829H5.3667V17.87H19.2984V8.11829H14.7194Z" fill="#939393"/>
</g>
<defs>
<clipPath id="clip0_843_29160">
<rect width="13.9318" height="12.54" fill="white" transform="translate(5.3667 5.33002)"/>
</clipPath>
</defs>
</svg>
