<svg width="24" height="24" viewBox="0 0 24 24" fill="none" xmlns="http://www.w3.org/2000/svg">
<path d="M12.7216 5.19336C12.9836 4.58208 13.1146 4.27645 13.3262 4.13761C13.5113 4.0162 13.7369 3.97277 13.9538 4.01675C14.2019 4.06704 14.4371 4.30217 14.9073 4.77243L19.2276 9.0927C19.6978 9.56296 19.933 9.79809 19.9833 10.0462C20.0272 10.2631 19.9838 10.4887 19.8624 10.6738C19.7236 10.8854 19.4179 11.0164 18.8066 11.2784L16.7114 12.1764C16.6225 12.2145 16.578 12.2335 16.5364 12.2573C16.4993 12.2785 16.464 12.3024 16.4306 12.3289C16.393 12.3588 16.3588 12.393 16.2904 12.4614L14.9793 13.7725C14.8723 13.8795 14.8189 13.9329 14.7764 13.9939C14.7387 14.048 14.7074 14.1063 14.6834 14.1677C14.6562 14.2368 14.6414 14.311 14.6117 14.4593L13.9961 17.5375C13.8361 18.3374 13.7561 18.7374 13.5452 18.9245C13.3615 19.0875 13.1157 19.162 12.8724 19.1282C12.5931 19.0895 12.3047 18.8011 11.7278 18.2242L5.77579 12.2722C5.19894 11.6953 4.91052 11.4069 4.87181 11.1276C4.83808 10.8844 4.91252 10.6385 5.07553 10.4548C5.26265 10.2439 5.66262 10.1639 6.46256 10.0039L9.54073 9.38827C9.68905 9.35861 9.76321 9.34377 9.83236 9.31665C9.89374 9.29257 9.95207 9.26136 10.0062 9.22364C10.0671 9.18115 10.1206 9.12767 10.2275 9.02072L11.5387 7.70956C11.607 7.64118 11.6412 7.60699 11.6711 7.56941C11.6976 7.53602 11.7215 7.50066 11.7427 7.46364C11.7665 7.42196 11.7855 7.37752 11.8236 7.28863L12.7216 5.19336Z" fill="#17171B"/>
<path d="M8.75179 15.2482L4 20M11.5387 7.70956L10.2275 9.02072C10.1206 9.12767 10.0671 9.18115 10.0062 9.22364C9.95207 9.26136 9.89374 9.29258 9.83236 9.31665C9.76321 9.34377 9.68905 9.35861 9.54073 9.38827L6.46256 10.0039C5.66262 10.1639 5.26265 10.2439 5.07553 10.4548C4.91252 10.6385 4.83808 10.8844 4.87181 11.1276C4.91052 11.4069 5.19894 11.6953 5.77579 12.2722L11.7278 18.2242C12.3047 18.8011 12.5931 19.0895 12.8724 19.1282C13.1157 19.162 13.3615 19.0875 13.5452 18.9245C13.7561 18.7374 13.8361 18.3374 13.9961 17.5375L14.6117 14.4593C14.6414 14.311 14.6562 14.2368 14.6834 14.1677C14.7074 14.1063 14.7387 14.048 14.7764 13.9939C14.8189 13.9329 14.8723 13.8795 14.9793 13.7725L16.2904 12.4614C16.3588 12.393 16.393 12.3588 16.4306 12.3289C16.464 12.3024 16.4993 12.2785 16.5364 12.2573C16.578 12.2335 16.6225 12.2145 16.7114 12.1764L18.8066 11.2784C19.4179 11.0164 19.7236 10.8854 19.8624 10.6738C19.9838 10.4887 20.0272 10.2631 19.9833 10.0462C19.933 9.79809 19.6978 9.56296 19.2276 9.0927L14.9073 4.77243C14.4371 4.30217 14.2019 4.06704 13.9538 4.01675C13.7369 3.97277 13.5113 4.0162 13.3262 4.13761C13.1146 4.27645 12.9836 4.58208 12.7216 5.19336L11.8236 7.28863C11.7855 7.37752 11.7665 7.42196 11.7427 7.46364C11.7215 7.50066 11.6976 7.53602 11.6711 7.56941C11.6412 7.60699 11.607 7.64118 11.5387 7.70956Z" stroke="#17171B" stroke-width="1.44" stroke-linecap="round" stroke-linejoin="round"/>
</svg>
