<svg width="14" height="14" viewBox="0 0 14 14" fill="none" xmlns="http://www.w3.org/2000/svg">
<path fill-rule="evenodd" clip-rule="evenodd" d="M12.8838 7.25003C13.3618 6.80386 13.3617 6.80376 13.3616 6.80364L12.8838 7.25003ZM13.3616 6.80364L13.358 6.79983L13.3494 6.79067L13.3179 6.75759C13.2908 6.7292 13.2514 6.68841 13.2008 6.63698C13.0997 6.53417 12.9535 6.38861 12.7706 6.21452C12.4056 5.86705 11.8903 5.40233 11.291 4.93594C10.6937 4.4711 10.0002 3.9945 9.27892 3.63165C8.56522 3.27261 7.77571 3 6.9992 3C6.22268 3 5.43317 3.27261 4.71947 3.63165C3.99819 3.9945 3.30465 4.4711 2.70737 4.93594C2.10811 5.40233 1.5928 5.86705 1.22776 6.21452C1.04486 6.38861 0.898722 6.53417 0.797591 6.63698C0.747004 6.68841 0.707614 6.7292 0.68045 6.75759L0.648979 6.79067L0.640347 6.79983L0.637848 6.8025L0.637057 6.80334C0.63695 6.80346 0.636575 6.80386 1.11455 7.25003L0.637057 6.80334C0.402552 7.05457 0.40207 7.44497 0.636575 7.69619C0.636468 7.69607 0.636575 7.69619 1.11455 7.25003L0.636575 7.69619L0.637848 7.69755L0.640347 7.70022L0.648979 7.70938L0.68045 7.74246C0.707614 7.77085 0.747004 7.81164 0.797591 7.86307C0.898722 7.96588 1.04486 8.11144 1.22776 8.28553C1.5928 8.633 2.10811 9.09772 2.70737 9.56411C3.30465 10.0289 3.99819 10.5056 4.71947 10.8684C5.43317 11.2274 6.22268 11.5001 6.9992 11.5001C7.77571 11.5001 8.56522 11.2274 9.27892 10.8684C10.0002 10.5056 10.6937 10.0289 11.291 9.56411C11.8903 9.09772 12.4056 8.633 12.7706 8.28553C12.9535 8.11144 13.0997 7.96588 13.2008 7.86307C13.2514 7.81164 13.2908 7.77085 13.3179 7.74246L13.3494 7.70938L13.358 7.70022L13.3613 7.69671C13.3614 7.69659 13.3618 7.69619 12.8838 7.25003L13.3613 7.69671C13.5958 7.44548 13.5961 7.05487 13.3616 6.80364ZM6.01842 7.25003C6.01842 6.70836 6.45753 6.26925 6.9992 6.26925C7.54086 6.26925 7.97997 6.70836 7.97997 7.25003C7.97997 7.79169 7.54086 8.2308 6.9992 8.2308C6.45753 8.2308 6.01842 7.79169 6.01842 7.25003ZM6.9992 4.96155C5.73531 4.96155 4.71072 5.98614 4.71072 7.25003C4.71072 8.51392 5.73531 9.5385 6.9992 9.5385C8.26309 9.5385 9.28767 8.51392 9.28767 7.25003C9.28767 5.98614 8.26309 4.96155 6.9992 4.96155Z" fill="#ADADAD"/>
</svg>
