<svg viewBox="0 0 24 24" fill="none" xmlns="http://www.w3.org/2000/svg">
<path d="M16.37 4.5C17.47 4.5 18.51 4.93 19.29 5.715C20.905 7.33 20.905 9.955 19.29 11.57L12 18.875L4.71001 11.565C3.09501 9.95 3.09501 7.325 4.71001 5.71C5.48501 4.93 6.52 4.5 7.62 4.5C8.72 4.5 9.755 4.93 10.54 5.72L10.94 6.115L12 7.165L13.055 6.105L13.45 5.71C14.23 4.925 15.265 4.495 16.365 4.495M16.37 3C14.93 3 13.495 3.555 12.395 4.655L12 5.05L11.6 4.655C10.505 3.555 9.06 3 7.625 3C6.19 3 4.745 3.555 3.65 4.655C1.45 6.855 1.45 10.43 3.65 12.63L12 21L20.35 12.63C22.55 10.43 22.55 6.855 20.35 4.655C19.25 3.555 17.81 3 16.37 3Z" fill="currentColor"/>
</svg>
