<svg width="20" height="18" viewBox="0 0 20 18" fill="none" xmlns="http://www.w3.org/2000/svg">
<path d="M14.37 1.2C15.55 1.2 16.665 1.665 17.5 2.505C19.23 4.235 19.23 7.05 17.5 8.78L10 16.3L2.50001 8.78C0.770006 7.05 0.770006 4.235 2.50001 2.5C3.33501 1.66 4.44501 1.2 5.62501 1.2C6.80501 1.2 7.915 1.66 8.755 2.51L9.155 2.905L10.005 3.745L10.85 2.9L11.245 2.505C12.085 1.665 13.195 1.2 14.37 1.2ZM14.37 0C12.93 0 11.495 0.554999 10.395 1.655L10 2.05L9.6 1.655C8.505 0.554999 7.06001 0 5.62501 0C4.19001 0 2.745 0.554999 1.65 1.655C-0.55 3.855 -0.55 7.43 1.65 9.63L10 18L18.35 9.63C20.55 7.43 20.55 3.855 18.35 1.655C17.25 0.554999 15.81 0 14.37 0Z" fill="currentColor"/>
</svg>
