<svg width="20" height="20" viewBox="0 0 20 20" fill="none" xmlns="http://www.w3.org/2000/svg">
<path d="M7.90859 13.148L7.17734 13.8855L2.46484 18.598L1.40234 17.5355L5.66484 13.273L6.11484 12.823L6.85234 12.0918L7.90859 13.148Z" fill="#231F20"/>
<path d="M14.4266 1.22266L7.02031 7.42891L1.22656 7.93516L4.79531 11.5039L5.85781 10.4414L4.56406 9.14766L7.14531 8.92891L7.62031 8.88516L7.98281 8.57891L14.3328 3.25391L16.7453 5.66641L11.4203 12.0227L11.1141 12.3852L11.0766 12.8539L10.8516 15.4352L7.18281 11.7664L6.85781 12.0977H6.85156L6.11406 12.8227L12.0703 18.7789L12.5703 12.9852L18.7766 5.57891L14.4266 1.22266Z" fill="#231F20"/>
</svg>
