<svg width="16" height="16" viewBox="0 0 16 16" fill="none" xmlns="http://www.w3.org/2000/svg">
<g clip-path="url(#clip0_1862_31320)">
<path d="M6.32463 10.5176L5.73963 11.1076L1.96963 14.8776L1.11963 14.0276L4.52963 10.6176L4.88963 10.2576L5.47963 9.67261L6.32463 10.5176Z" fill="#231F20"/>
<path d="M11.54 0.977539L5.61498 5.94254L0.97998 6.34754L3.83498 9.20254L4.68498 8.35254L3.64998 7.31754L5.71498 7.14254L6.09498 7.10754L6.38498 6.86254L11.465 2.60254L13.395 4.53254L9.13498 9.61754L8.88998 9.90754L8.85998 10.2825L8.67998 12.3475L5.74498 9.41254L5.48498 9.67754H5.47998L4.88998 10.2575L9.65498 15.0225L10.055 10.3875L15.02 4.46254L11.54 0.977539Z" fill="#231F20"/>
</g>
<defs>
<clipPath id="clip0_1862_31320">
<rect width="16" height="16" fill="white"/>
</clipPath>
</defs>
</svg>
