<svg viewBox="0 0 16 17" fill="none" xmlns="http://www.w3.org/2000/svg">
<path d="M6.83984 9.15943C7.10142 9.50912 7.43513 9.79847 7.81836 10.0078C8.20159 10.2172 8.62537 10.3417 9.06095 10.3729C9.49653 10.4041 9.93373 10.3413 10.3429 10.1886C10.752 10.036 11.1236 9.79718 11.4323 9.48833L13.2596 7.66109C13.8143 7.08672 14.1213 6.31744 14.1143 5.51895C14.1074 4.72045 13.7871 3.95662 13.2225 3.39198C12.6578 2.82734 11.894 2.50705 11.0955 2.50012C10.297 2.49318 9.52773 2.80014 8.95336 3.35488L7.90574 4.39641" stroke="currentColor" stroke-width="1.3" stroke-linecap="square" stroke-linejoin="round"/>
<path d="M9.2746 7.94393C9.01303 7.59424 8.67931 7.30489 8.29608 7.09552C7.91285 6.88614 7.48908 6.76163 7.0535 6.73044C6.61791 6.69924 6.18072 6.76209 5.77156 6.91472C5.36241 7.06734 4.99086 7.30618 4.68213 7.61503L2.85488 9.44227C2.30014 10.0166 1.99318 10.7859 2.00012 11.5844C2.00705 12.3829 2.32734 13.1467 2.89198 13.7114C3.45662 14.276 4.22045 14.5963 5.01895 14.6032C5.81744 14.6102 6.58672 14.3032 7.16109 13.7485L8.20262 12.7069" stroke="currentColor" stroke-width="1.3" stroke-linecap="square" stroke-linejoin="round"/>
</svg>
