<svg width="24" height="24" viewBox="0 0 24 24" fill="none" xmlns="http://www.w3.org/2000/svg">
<g clip-path="url(#clip0_4335_27110)">
<path d="M12.8073 16.38L10.3023 18.885C9.00726 20.18 6.74226 20.04 5.27726 18.575C3.80726 17.105 3.66726 14.845 4.96726 13.55L8.77226 9.74499C10.0673 8.44999 12.3323 8.58999 13.7973 10.055C14.1123 10.37 14.3673 10.72 14.5573 11.09" stroke="#231F20" stroke-width="1.2" stroke-miterlimit="10"/>
<path d="M11.1025 6.77999L13.6075 4.27499C14.9025 2.97999 17.1675 3.11999 18.6325 4.58499C20.1025 6.05499 20.2425 8.31499 18.9425 9.60999L15.1375 13.415C13.8425 14.71 11.5775 14.57 10.1125 13.105C9.79754 12.79 9.54254 12.44 9.35254 12.07" stroke="#231F20" stroke-width="1.2" stroke-miterlimit="10"/>
</g>
<defs>
<clipPath id="clip0_4335_27110">
<rect width="16.955" height="17.58" fill="white" transform="translate(3.47754 2.79)"/>
</clipPath>
</defs>
</svg>
