<svg width="24" height="24" viewBox="0 0 24 24" fill="none" xmlns="http://www.w3.org/2000/svg">
<path d="M12.6453 13.52H11.4453V17.565H12.6453V13.52Z" fill="#17171B"/>
<path d="M17.2304 10.065H16.0304V6.485C16.0304 4.675 14.2454 3.2 12.0454 3.2C9.84535 3.2 8.06035 4.675 8.06035 6.485V10.065H6.86035V6.485C6.86035 4.01 9.19035 2 12.0454 2C14.9004 2 17.2304 4.01 17.2304 6.485V10.065Z" fill="#17171B"/>
<path d="M18.73 9.09503V10.295H19.895V20.785H4.2V10.295H8.06V9.09503H3V21.985H21.095V9.09503H18.73Z" fill="#17171B"/>
<path d="M17.2301 9.09503H9.56006V10.295H17.2301V9.09503Z" fill="#17171B"/>
</svg>
