<svg width="91" height="90" viewBox="0 0 91 90" fill="none" xmlns="http://www.w3.org/2000/svg">
<mask id="mask0_713_9384" style="mask-type:alpha" maskUnits="userSpaceOnUse" x="0" y="0" width="91" height="90">
<path d="M90.5 45C90.5 69.8528 70.3528 90 45.5 90C20.6472 90 0.5 69.8528 0.5 45C0.5 20.1472 20.6472 0 45.5 0C70.3528 0 90.5 20.1472 90.5 45Z" fill="#E5E5E4"/>
</mask>
<g mask="url(#mask0_713_9384)">
<path d="M90.5 45C90.5 69.8528 70.3528 90 45.5 90C20.6472 90 0.5 69.8528 0.5 45C0.5 20.1472 20.6472 0 45.5 0C70.3528 0 90.5 20.1472 90.5 45Z" fill="#E5E5E4"/>
<path d="M20.6374 93L20.5534 74.0532C20.524 67.4051 25.9051 62 32.5533 62H59.4467C66.0949 62 71.476 67.4051 71.4466 74.0532L71.3626 93" fill="#D3D3D3"/>
<path d="M20.6374 93L20.5534 74.0532C20.524 67.4051 25.9051 62 32.5533 62H59.4467C66.0949 62 71.476 67.4051 71.4466 74.0532L71.3626 93" stroke="#D3D3D3" stroke-width="2.4" stroke-miterlimit="10"/>
<path d="M45.75 49.6025C51.9915 49.6025 57.0513 44.5428 57.0513 38.3013C57.0513 32.0597 51.9915 27 45.75 27C39.5085 27 34.4487 32.0597 34.4487 38.3013C34.4487 44.5428 39.5085 49.6025 45.75 49.6025Z" fill="#D3D3D3" stroke="#D3D3D3" stroke-width="2.4" stroke-miterlimit="10"/>
</g>
</svg>
