<svg width="24" height="24" viewBox="0 0 24 24" fill="none" xmlns="http://www.w3.org/2000/svg">
<path d="M15.0333 13.7274L13.9727 14.7881L21.8534 22.6688L22.914 21.6081L15.0333 13.7274Z" fill="currentColor"/>
<path d="M16.9002 15.625C16.7252 15.85 16.5402 16.065 16.3402 16.27C14.9352 17.695 13.0552 18.49 11.0502 18.505H10.9952C6.89023 18.505 3.52523 15.165 3.49523 11.055C3.48023 9.05 4.25023 7.165 5.65523 5.735C7.06023 4.305 8.94023 3.515 10.9452 3.5H11.0002C15.1052 3.5 18.4702 6.84 18.5002 10.95C18.5102 12.14 18.2352 13.285 17.7202 14.32L18.8252 15.425C19.5752 14.1 20.0102 12.57 19.9952 10.935C19.9652 5.99 15.9452 2 11.0002 2C10.9802 2 10.9602 2 10.9352 2C5.97023 2.035 1.96523 6.095 2.00023 11.065C2.03523 16.015 6.05523 20.005 11.0002 20.005C11.0202 20.005 11.0402 20.005 11.0652 20.005C13.8552 19.985 16.3352 18.7 17.9752 16.695L16.9052 15.625H16.9002Z" fill="currentColor"/>
</svg>
