<svg width="24" height="24" viewBox="0 0 24 24" fill="none" xmlns="http://www.w3.org/2000/svg">
<path d="M10.1828 22C9.67846 22 9.25306 21.6245 9.1905 21.124L8.97429 19.3943C8.92855 19.0284 8.67907 18.7273 8.35976 18.5429C8.33548 18.5288 8.31139 18.5145 8.2875 18.5C8.25547 18.4805 8.22356 18.4608 8.19177 18.4408C7.89542 18.2548 7.52792 18.2078 7.20533 18.3433L5.56167 19.034C5.09766 19.2289 4.56106 19.0486 4.30888 18.6131L2.44275 15.3898C2.18988 14.953 2.30212 14.3962 2.70447 14.0915L4.30498 12.8795C4.47162 12.7533 4.55 12.5465 4.55 12.3375V11.6625C4.55 11.4535 4.47162 11.2467 4.30498 11.1205L2.70447 9.90848C2.30212 9.60379 2.18988 9.04703 2.44275 8.61024L4.30888 5.38693C4.56106 4.95135 5.09766 4.77108 5.56167 4.96604L7.20533 5.65665C7.52792 5.79219 7.89513 5.74454 8.19423 5.56295C8.22922 5.5417 8.26448 5.52072 8.3 5.5C8.32633 5.48464 8.35265 5.46958 8.37898 5.4548C8.69189 5.27913 8.92747 4.98024 8.97198 4.62416L9.1905 2.87596C9.25306 2.37554 9.67846 2 10.1828 2H13.9172C14.4215 2 14.8469 2.37554 14.9095 2.87597L15.1257 4.60569C15.1714 4.97159 15.4209 5.27271 15.7402 5.45715C15.7645 5.47117 15.7886 5.48546 15.8125 5.5C15.8445 5.5195 15.8764 5.53922 15.9082 5.55918C16.2046 5.74523 16.5721 5.79219 16.8947 5.65665L18.5383 4.96604C19.0023 4.77108 19.5389 4.95136 19.7911 5.38693L21.6572 8.61024C21.9101 9.04703 21.7979 9.60379 21.3955 9.90848L19.795 11.1205C19.6284 11.2467 19.55 11.4535 19.55 11.6625V12.3375C19.55 12.5438 19.6084 12.7571 19.7729 12.8816L21.3705 14.0915C21.7729 14.3962 21.8851 14.953 21.6322 15.3898L19.7675 18.6107C19.5147 19.0473 18.9764 19.2273 18.5119 19.0305L16.8958 18.3457C16.5727 18.2088 16.2041 18.256 15.9041 18.4381C15.8696 18.459 15.8349 18.4796 15.8 18.5C15.7737 18.5154 15.7473 18.5304 15.721 18.5452C15.4081 18.7209 15.1725 19.0198 15.128 19.3758L14.9095 21.124C14.8469 21.6245 14.4215 22 13.9172 22H10.1828ZM12.1 15.5C13.0667 15.5 13.8917 15.1583 14.575 14.475C15.2583 13.7917 15.6 12.9667 15.6 12C15.6 11.0333 15.2583 10.2083 14.575 9.525C13.8917 8.84167 13.0667 8.5 12.1 8.5C11.1167 8.5 10.2875 8.84167 9.6125 9.525C8.9375 10.2083 8.6 11.0333 8.6 12C8.6 12.9667 8.9375 13.7917 9.6125 14.475C10.2875 15.1583 11.1167 15.5 12.1 15.5Z" fill="white"/>
</svg>
