<svg viewBox="0 0 24 24" fill="none" xmlns="http://www.w3.org/2000/svg">
<path d="M12.71 3.2L13.06 4.8L13.21 5.49L13.885 5.695C14.32 5.825 14.74 6 15.14 6.215L15.76 6.545L16.355 6.165L17.74 5.28L18.73 6.265L17.845 7.65L17.465 8.245L17.795 8.865C18.01 9.265 18.185 9.69 18.315 10.12L18.52 10.795L19.205 10.945L20.81 11.3V12.69L19.205 13.045L18.52 13.195L18.315 13.87C18.185 14.305 18.01 14.725 17.795 15.125L17.465 15.745L17.845 16.34L18.73 17.725L17.74 18.71L16.355 17.825L15.76 17.445L15.14 17.775C14.74 17.99 14.315 18.165 13.885 18.295L13.21 18.5L13.06 19.19L12.71 20.79H11.31L10.96 19.19L10.81 18.5L10.135 18.295C9.7 18.165 9.28 17.99 8.88 17.775L8.26 17.445L7.665 17.825L6.285 18.705L5.3 17.72L6.185 16.335L6.57 15.735L6.23 15.11C6.015 14.72 5.84 14.3 5.71 13.865L5.505 13.19L4.82 13.04L3.215 12.685V11.295L4.82 10.94L5.505 10.79L5.71 10.115C5.84 9.675 6.015 9.255 6.23 8.87L6.57 8.245L6.185 7.645L5.3 6.26L6.285 5.275L7.665 6.155L8.26 6.535L8.88 6.205C9.28 5.99 9.705 5.815 10.135 5.685L10.81 5.48L10.96 4.79L11.31 3.19H12.71M13.675 2H10.34L9.785 4.545C9.27 4.7 8.775 4.905 8.305 5.155L6.11 3.755L3.755 6.1L5.16 8.3C4.905 8.765 4.7 9.26 4.545 9.78L2 10.345V13.66L4.545 14.225C4.7 14.74 4.905 15.235 5.16 15.705L3.755 17.905L6.11 20.25L8.305 18.85C8.77 19.1 9.265 19.305 9.785 19.46L10.34 22.005H13.675L14.23 19.46C14.745 19.305 15.24 19.1 15.71 18.85L17.905 20.25L20.265 17.905L18.86 15.705C19.11 15.24 19.315 14.745 19.47 14.225L22.015 13.66V10.345L19.47 9.78C19.315 9.265 19.11 8.77 18.86 8.3L20.265 6.1L17.905 3.755L15.71 5.155C15.245 4.905 14.75 4.7 14.23 4.545L13.675 2Z" fill="currentColor"/>
<path d="M12.0206 15.385C10.1556 15.385 8.64062 13.87 8.64062 12.005C8.64062 10.14 10.1556 8.625 12.0206 8.625C13.8856 8.625 15.4006 10.14 15.4006 12.005C15.4006 13.87 13.8856 15.385 12.0206 15.385ZM12.0206 9.825C10.8206 9.825 9.84063 10.8 9.84063 12.005C9.84063 13.21 10.8156 14.18 12.0206 14.18C13.2256 14.18 14.2006 13.205 14.2006 12.005C14.2006 10.805 13.2256 9.825 12.0206 9.825Z" fill="currentColor"/>
</svg>
