<svg viewBox="0 0 24 24" fill="none" xmlns="http://www.w3.org/2000/svg">
<path d="M7 10.5C7.825 10.5 8.5 11.175 8.5 12C8.5 12.825 7.825 13.5 7 13.5C6.175 13.5 5.5 12.825 5.5 12C5.5 11.175 6.175 10.5 7 10.5ZM7 9C5.345 9 4 10.345 4 12C4 13.655 5.345 15 7 15C8.655 15 10 13.655 10 12C10 10.345 8.655 9 7 9Z" fill="currentColor"/>
<path d="M17.9951 3.5C18.8201 3.5 19.4951 4.175 19.4951 5C19.4951 5.825 18.8201 6.5 17.9951 6.5C17.1701 6.5 16.4951 5.825 16.4951 5C16.4951 4.175 17.1701 3.5 17.9951 3.5ZM17.9951 2C16.3401 2 14.9951 3.345 14.9951 5C14.9951 6.655 16.3401 8 17.9951 8C19.6501 8 20.9951 6.655 20.9951 5C20.9951 3.345 19.6501 2 17.9951 2Z" fill="currentColor"/>
<path d="M17.9951 17.5C18.8201 17.5 19.4951 18.175 19.4951 19C19.4951 19.825 18.8201 20.5 17.9951 20.5C17.1701 20.5 16.4951 19.825 16.4951 19C16.4951 18.175 17.1701 17.5 17.9951 17.5ZM17.9951 16C16.3401 16 14.9951 17.345 14.9951 19C14.9951 20.655 16.3401 22 17.9951 22C19.6501 22 20.9951 20.655 20.9951 19C20.9951 17.345 19.6501 16 17.9951 16Z" fill="currentColor"/>
<path d="M8.99512 10.7336L16.1351 6.18359" stroke="currentColor" stroke-width="1.5" stroke-miterlimit="10"/>
<path d="M16.1351 17.8195L8.99512 13.2695" stroke="currentColor" stroke-width="1.5" stroke-miterlimit="10"/>
</svg>
