<svg viewBox="0 0 24 24" fill="none" xmlns="http://www.w3.org/2000/svg">
<path d="M16.2765 7.88889C17.3504 7.88889 18.2209 7.01833 18.2209 5.94444C18.2209 4.87056 17.3504 4 16.2765 4C15.2026 4 14.332 4.87056 14.332 5.94444C14.332 7.01833 15.2026 7.88889 16.2765 7.88889Z" fill="currentColor" stroke="currentColor" stroke-width="1.55556" stroke-linejoin="round"/>
<path d="M6.72179 13.9436C7.79568 13.9436 8.66623 13.073 8.66623 11.9991C8.66623 10.9252 7.79568 10.0547 6.72179 10.0547C5.6479 10.0547 4.77734 10.9252 4.77734 11.9991C4.77734 13.073 5.6479 13.9436 6.72179 13.9436Z" fill="currentColor" stroke="currentColor" stroke-width="1.55556" stroke-linejoin="round"/>
<path d="M15.0007 6.78665L8.67011 10.6221" stroke="currentColor" stroke-width="1.4" stroke-linecap="round" stroke-linejoin="round"/>
<path d="M8.66926 13.2812L15.3395 17.2227" stroke="currentColor" stroke-width="1.4" stroke-linecap="round" stroke-linejoin="round"/>
<path d="M16.2765 16.1111C17.3504 16.1111 18.2209 16.9817 18.2209 18.0556C18.2209 19.1294 17.3504 20 16.2765 20C15.2026 20 14.332 19.1294 14.332 18.0556C14.332 16.9817 15.2026 16.1111 16.2765 16.1111Z" fill="currentColor" stroke="currentColor" stroke-width="1.55556" stroke-linejoin="round"/>
</svg>
