<svg width="22" height="20" viewBox="0 0 22 20" fill="none" xmlns="http://www.w3.org/2000/svg">
<path d="M9.04996 18.723C9.85906 18.723 10.515 18.0671 10.515 17.258C10.515 16.4489 9.85906 15.793 9.04996 15.793C8.24086 15.793 7.58496 16.4489 7.58496 17.258C7.58496 18.0671 8.24086 18.723 9.04996 18.723Z" stroke="currentColor" stroke-width="1.5" stroke-miterlimit="10"/>
<path d="M15.6247 18.723C16.4338 18.723 17.0897 18.0671 17.0897 17.258C17.0897 16.4489 16.4338 15.793 15.6247 15.793C14.8156 15.793 14.1597 16.4489 14.1597 17.258C14.1597 18.0671 14.8156 18.723 15.6247 18.723Z" stroke="currentColor" stroke-width="1.5" stroke-miterlimit="10"/>
<path d="M6.23504 3.95734L6.61004 5.45734H19.415L17.59 12.7523H6.92504L6.71004 11.9023L6.68004 11.9123L3.76504 0.277344H0.665039V1.77734H2.63004L5.75504 14.2523H18.76L21.335 3.95734H6.23504Z" fill="currentColor"/>
</svg>
