<svg width="25" height="24" viewBox="0 0 25 24" fill="none" xmlns="http://www.w3.org/2000/svg">
<path d="M12.5188 9.80078C11.9233 9.80078 11.436 10.288 11.436 10.8836C11.436 11.4791 11.9233 11.9664 12.5188 11.9664C13.1144 11.9664 13.6016 11.4791 13.6016 10.8836C13.6016 10.288 13.1144 9.80078 12.5188 9.80078Z" fill="currentColor"/>
<path d="M16.4495 9.80078C15.854 9.80078 15.3667 10.288 15.3667 10.8836C15.3667 11.4791 15.854 11.9664 16.4495 11.9664C17.045 11.9664 17.5323 11.4791 17.5323 10.8836C17.5323 10.288 17.045 9.80078 16.4495 9.80078Z" fill="currentColor"/>
<path d="M8.5828 9.80078C7.98726 9.80078 7.5 10.288 7.5 10.8836C7.5 11.4791 7.98726 11.9664 8.5828 11.9664C9.17834 11.9664 9.66561 11.4791 9.66561 10.8836C9.66561 10.288 9.17834 9.80078 8.5828 9.80078Z" fill="currentColor"/>
<path d="M22.5 10.8191C22.5 13.3987 20.9042 15.686 18.4419 17.1134V21L15.1186 18.3745C14.285 18.5522 13.4021 18.644 12.4973 18.644C6.97492 18.644 2.5 15.1414 2.5 10.8191C2.5 6.49682 6.97492 3 12.4973 3C18.0196 3 22.5 6.50255 22.5 10.8191Z" stroke="currentColor" stroke-width="1.5" stroke-miterlimit="10"/>
</svg>
