<svg width="12" height="13" viewBox="0 0 12 13" fill="none" xmlns="http://www.w3.org/2000/svg">
<circle cx="6" cy="6.5" r="6" fill="#FF6060"/>
<path d="M6.70419 3L6.57303 7.82269H5.34213L5.20761 3H6.70419ZM5.95758 9.97508C5.73562 9.97508 5.54504 9.89661 5.38585 9.73967C5.22667 9.58048 5.1482 9.3899 5.15044 9.16794C5.1482 8.94821 5.22667 8.75988 5.38585 8.60294C5.54504 8.44599 5.73562 8.36752 5.95758 8.36752C6.17058 8.36752 6.35779 8.44599 6.51922 8.60294C6.68065 8.75988 6.76249 8.94821 6.76473 9.16794C6.76249 9.31591 6.72325 9.45156 6.64702 9.57487C6.57303 9.69594 6.4755 9.79348 6.35443 9.86746C6.23336 9.93921 6.10108 9.97508 5.95758 9.97508Z" fill="white"/>
</svg>
