<svg width="24" height="24" viewBox="0 0 24 24" fill="none" xmlns="http://www.w3.org/2000/svg">
<path d="M16.4054 22H7.59456C4.50901 22 2 19.491 2 16.4054V7.59455C2 4.51168 4.50901 2 7.59456 2H16.4054C19.491 2 22 4.50901 22 7.59455V16.4054C22 19.491 19.491 22 16.4054 22ZM7.59456 3.61217C5.39784 3.61217 3.61217 5.39784 3.61217 7.59455V16.4054C3.61217 18.6022 5.39784 20.3878 7.59456 20.3878H16.4054C18.6022 20.3878 20.3878 18.6022 20.3878 16.4054V7.59455C20.3878 5.39784 18.6022 3.61217 16.4054 3.61217H7.59456Z" fill="currentColor"/>
<path d="M11.9963 17.2544C9.10029 17.2544 6.74609 14.8975 6.74609 12.0041C6.74609 9.11077 9.10296 6.75391 11.9963 6.75391C14.8897 6.75391 17.2466 9.11077 17.2466 12.0041C17.2466 14.8975 14.8897 17.2544 11.9963 17.2544ZM11.9963 8.36341C9.98912 8.36341 8.3556 9.99693 8.3556 12.0041C8.3556 14.0113 9.98912 15.6449 11.9963 15.6449C14.0035 15.6449 15.6371 14.0113 15.6371 12.0041C15.6371 9.99693 14.0035 8.36341 11.9963 8.36341Z" fill="currentColor"/>
<path d="M18.6695 6.62C18.6695 7.33266 18.0929 7.91187 17.3803 7.91187C16.6676 7.91187 16.0884 7.33533 16.0884 6.62C16.0884 5.90466 16.6676 5.32812 17.3803 5.32812C18.0929 5.32812 18.6695 5.90466 18.6695 6.62Z" fill="currentColor"/>
</svg>
