<svg width="24" height="24" viewBox="0 0 24 24" fill="none" xmlns="http://www.w3.org/2000/svg">
<path d="M20.6196 6.80264V10.1008C18.8455 10.1008 17.2061 9.50774 15.8906 8.50671V15.5544H15.8878C15.8906 15.5949 15.8906 15.6383 15.8906 15.6817C15.8906 19.168 13.0905 21.9975 9.63407 21.9975C6.17762 21.9975 3.38037 19.168 3.38037 15.6817C3.38037 12.1955 6.18049 9.36598 9.63407 9.36598C9.90061 9.36598 10.1614 9.38334 10.4165 9.41516V12.8146C10.1729 12.7452 9.91494 12.7105 9.6484 12.7105C8.01762 12.7105 6.69924 14.0471 6.69924 15.6904C6.69924 17.3337 8.01762 18.6704 9.6484 18.6704C11.2792 18.6704 12.6004 17.3337 12.6004 15.6904V7.18743H12.589V2H15.8906V2.15044C15.9537 4.73114 18.0459 6.80264 20.6196 6.80264Z" fill="currentColor"/>
</svg>
