<svg width="24" height="24" viewBox="0 0 24 24" fill="none" xmlns="http://www.w3.org/2000/svg">
<path d="M22.5399 6.84264C22.2883 5.91985 21.5407 5.19447 20.5942 4.9495C18.8808 4.5 12.0012 4.5 12.0012 4.5C12.0012 4.5 5.12156 4.5 3.40584 4.9495C2.45932 5.19447 1.71408 5.91985 1.46008 6.84264C1 8.51459 1 12.0012 1 12.0012C1 12.0012 1 15.4854 1.46008 17.1574C1.71408 18.0801 2.45932 18.8055 3.40584 19.0529C5.12156 19.5 12.0012 19.5 12.0012 19.5C12.0012 19.5 18.8808 19.5 20.5942 19.0529C21.5407 18.8055 22.2883 18.0801 22.5399 17.1574C23 15.4854 23 12.0012 23 12.0012C23 12.0012 23 8.51459 22.5399 6.84264ZM9.823 15.0668V8.93317L15.1762 12.0012L9.823 15.0668Z" fill="currentColor"/>
</svg>
