<svg width="24" height="24" viewBox="0 0 24 24" fill="none" xmlns="http://www.w3.org/2000/svg">
<g clip-path="url(#clip0_561_16105)">
<path d="M12.9471 3.06628C13.291 2.26398 13.4629 1.86284 13.7407 1.68062C13.9836 1.52127 14.2797 1.46426 14.5644 1.52198C14.89 1.58799 15.1986 1.8966 15.8158 2.51381L21.4862 8.18417C22.1034 8.80138 22.412 9.10999 22.478 9.43561C22.5357 9.72036 22.4787 10.0164 22.3194 10.2593C22.1372 10.5371 21.736 10.7091 20.9337 11.0529L18.1837 12.2315C18.067 12.2815 18.0087 12.3065 17.954 12.3377C17.9054 12.3655 17.859 12.3969 17.8152 12.4317C17.7658 12.4709 17.721 12.5158 17.6312 12.6055L15.9103 14.3264C15.7699 14.4668 15.6998 14.537 15.644 14.617C15.5945 14.6879 15.5535 14.7645 15.5219 14.8451C15.4863 14.9358 15.4668 15.0332 15.4279 15.2278L14.6199 19.2679C14.4099 20.3179 14.3049 20.8428 14.0281 21.0884C13.787 21.3024 13.4643 21.4001 13.145 21.3558C12.7785 21.305 12.3999 20.9264 11.6428 20.1693L3.83072 12.3572C3.07361 11.6001 2.69506 11.2216 2.64424 10.855C2.59998 10.5357 2.69768 10.213 2.91164 9.97189C3.15723 9.6951 3.68219 9.59011 4.73212 9.38013L8.77221 8.5721C8.96688 8.53317 9.06421 8.5137 9.15497 8.4781C9.23553 8.44651 9.31209 8.40553 9.38307 8.35603C9.46304 8.30026 9.53323 8.23007 9.6736 8.08969L11.3945 6.3688C11.4842 6.27905 11.5291 6.23417 11.5683 6.18485C11.6031 6.14103 11.6345 6.09462 11.6623 6.04603C11.6935 5.99133 11.7185 5.933 11.7685 5.81633L12.9471 3.06628Z" fill="currentColor"/>
<path d="M7.73672 16.2633L1.5 22.5M11.3945 6.3688L9.6736 8.08969C9.53323 8.23007 9.46304 8.30026 9.38307 8.35603C9.31209 8.40553 9.23553 8.4465 9.15497 8.4781C9.06421 8.5137 8.96688 8.53317 8.77221 8.5721L4.73212 9.38013C3.68219 9.59011 3.15723 9.6951 2.91164 9.97189C2.69768 10.213 2.59998 10.5357 2.64424 10.855C2.69506 11.2216 3.07361 11.6001 3.83072 12.3572L11.6428 20.1693C12.3999 20.9264 12.7785 21.305 13.145 21.3558C13.4643 21.4001 13.787 21.3024 14.0281 21.0884C14.3049 20.8428 14.4099 20.3179 14.6199 19.2679L15.4279 15.2278C15.4668 15.0332 15.4863 14.9358 15.5219 14.8451C15.5535 14.7645 15.5945 14.6879 15.644 14.617C15.6998 14.537 15.7699 14.4668 15.9103 14.3264L17.6312 12.6055C17.721 12.5158 17.7658 12.4709 17.8152 12.4317C17.859 12.3969 17.9054 12.3655 17.954 12.3377C18.0087 12.3065 18.067 12.2815 18.1837 12.2315L20.9337 11.0529C21.736 10.7091 22.1372 10.5371 22.3194 10.2593C22.4787 10.0164 22.5357 9.72036 22.478 9.43561C22.412 9.10999 22.1034 8.80138 21.4862 8.18417L15.8158 2.51381C15.1986 1.8966 14.89 1.58799 14.5644 1.52198C14.2797 1.46426 13.9836 1.52127 13.7407 1.68062C13.4629 1.86284 13.291 2.26398 12.9471 3.06628L11.7685 5.81633C11.7185 5.933 11.6935 5.99133 11.6623 6.04603C11.6345 6.09462 11.6031 6.14102 11.5683 6.18485C11.5291 6.23417 11.4842 6.27905 11.3945 6.3688Z" stroke="currentColor" stroke-width="1.8" stroke-linecap="round" stroke-linejoin="round"/>
</g>
<defs>
<clipPath id="clip0_561_16105">
<rect width="24" height="24" fill="white"/>
</clipPath>
</defs>
</svg>
